<?xml version="1.0" encoding="UTF-8"?>
<svg xmlns="http://www.w3.org/2000/svg" width="1800" height="1210" viewBox="0 0 1800 1210" role="img" aria-labelledby="figure-title figure-desc">
  <title id="figure-title">Spatially grounded tensor-to-LLM interface</title>
  <desc id="figure-desc">A two-stage architecture. In Stage 1, shared input X branches to a value-preserving encoder and a frozen Qwen tokenizer; the paired outputs are read after short probes at frozen Qwen layer ell and aligned with a field-text contrastive matrix. Stage 2 places the same 256 spatial tokens directly before a natural-language question in a frozen Qwen model.</desc>

  <defs>
    <marker id="arrow-dark" markerWidth="11" markerHeight="11" refX="10" refY="5.5" orient="auto" markerUnits="userSpaceOnUse">
      <path d="M0,0 L11,5.5 L0,11 Z" fill="#33424f"/>
    </marker>
    <marker id="arrow-teal" markerWidth="11" markerHeight="11" refX="10" refY="5.5" orient="auto" markerUnits="userSpaceOnUse">
      <path d="M0,0 L11,5.5 L0,11 Z" fill="#28745f"/>
    </marker>
    <marker id="arrow-violet" markerWidth="11" markerHeight="11" refX="10" refY="5.5" orient="auto" markerUnits="userSpaceOnUse">
      <path d="M0,0 L11,5.5 L0,11 Z" fill="#76528b"/>
    </marker>
    <style>
      text { font-family: Arial, Helvetica, sans-serif; fill: #1f2a33; letter-spacing: 0; }
      .title { font-size: 36px; font-weight: 700; }
      .subtitle { font-size: 20px; fill: #56636e; }
      .panel-title { font-size: 28px; font-weight: 700; }
      .panel-note { font-size: 19px; fill: #60707c; }
      .lane { font-size: 21px; font-weight: 700; fill: #33424f; }
      .box-title { font-size: 22px; font-weight: 700; }
      .box-text { font-size: 19px; fill: #35434e; }
      .small { font-size: 17px; fill: #50606c; }
      .tiny { font-size: 15px; fill: #50606c; }
      .mono { font-family: Consolas, "Courier New", monospace; }
      .panel { fill: #f8fafb; stroke: #c8d2d9; stroke-width: 2; }
      .trainable { fill: #fbe5de; stroke: #bd543e; stroke-width: 2.5; }
      .frozen { fill: #e9eef2; stroke: #526879; stroke-width: 2.5; }
      .fixed { fill: #e4f0fb; stroke: #47789b; stroke-width: 2.5; }
      .tensor { fill: #dff0e8; stroke: #3f7c65; stroke-width: 2.5; }
      .textual { fill: #fff2c9; stroke: #9b7930; stroke-width: 2.5; }
      .loss-only { fill: #f0e8f4; stroke: #76528b; stroke-width: 2.5; stroke-dasharray: 8 6; }
      .neutral { fill: #ffffff; stroke: #81909b; stroke-width: 2; }
      .arrow { fill: none; stroke: #33424f; stroke-width: 2.8; marker-end: url(#arrow-dark); }
      .arrow-teal { fill: none; stroke: #28745f; stroke-width: 3; marker-end: url(#arrow-teal); }
      .arrow-violet { fill: none; stroke: #76528b; stroke-width: 2.8; stroke-dasharray: 8 6; marker-end: url(#arrow-violet); }
      .connector { fill: none; stroke: #7b8994; stroke-width: 2; }
      .dashed { stroke-dasharray: 7 6; }
      .vector-bracket { fill: none; stroke: #3f7c65; stroke-width: 2.5; stroke-linecap: square; }
      .vector-bracket-teacher { fill: none; stroke: #9b7930; stroke-width: 2.5; stroke-linecap: square; }
      .matrix-bg { fill: #f4eef7; stroke: #76528b; stroke-width: 1.5; }
      .matrix-grid { stroke: #d6c6df; stroke-width: 1; }
      .matrix-diag { fill: #83c5a7; stroke: #3f7c65; stroke-width: 1; }
    </style>
  </defs>

  <rect x="0" y="0" width="1800" height="1080" fill="#ffffff"/>

  <g id="header">
    <text x="48" y="47" class="title">Spatially Grounded Tensor-to-LLM Interface</text>
    <text x="50" y="78" class="subtitle">One spatial token per grid cell; alignment first, natural-language grounding second</text>

    <g id="legend" transform="translate(1025,24)">
      <rect x="0" y="0" width="28" height="22" rx="4" class="trainable"/>
      <text x="38" y="18" class="small">trainable</text>
      <rect x="145" y="0" width="28" height="22" rx="4" class="frozen"/>
      <text x="183" y="18" class="small">frozen</text>
      <rect x="286" y="0" width="28" height="22" rx="4" class="fixed"/>
      <text x="324" y="18" class="small">fixed / cached</text>
      <rect x="486" y="0" width="28" height="22" rx="4" class="loss-only"/>
      <text x="524" y="18" class="small">training-loss only</text>
      <rect x="0" y="34" width="28" height="18" rx="3" class="tensor"/>
      <text x="38" y="49" class="small">tensor embedding</text>
      <rect x="205" y="34" width="28" height="18" rx="3" class="textual"/>
      <text x="243" y="49" class="small">text embedding</text>
    </g>
  </g>

  <g id="stage1">
    <rect x="40" y="105" width="1720" height="545" rx="8" class="panel"/>
    <circle cx="70" cy="137" r="18" fill="#33424f"/>
    <text x="64" y="145" font-size="23" font-weight="700" fill="#ffffff">1</text>
    <text x="100" y="146" class="panel-title">Representation alignment</text>
    <text x="1728" y="144" text-anchor="end" class="panel-note">shared input X, paired probes, shared shallow Qwen</text>

    <text x="268" y="171" class="lane">Tensor branch (student)</text>
    <text x="268" y="381" class="lane">Text branch (teacher)</text>

    <g id="stage1-input-grid" transform="translate(60,270)">
      <rect x="0" y="0" width="112" height="112" rx="6" class="neutral"/>
      <g stroke="#ffffff" stroke-width="2">
        <rect x="8" y="8" width="23" height="23" fill="#477f9d"/>
        <rect x="32" y="8" width="23" height="23" fill="#6fa5ad"/>
        <rect x="56" y="8" width="23" height="23" fill="#d9cf79"/>
        <rect x="80" y="8" width="23" height="23" fill="#d56b52"/>
        <rect x="8" y="32" width="23" height="23" fill="#3d718f"/>
        <rect x="32" y="32" width="23" height="23" fill="#86b9aa"/>
        <rect x="56" y="32" width="23" height="23" fill="#ebd88b"/>
        <rect x="80" y="32" width="23" height="23" fill="#c85745"/>
        <rect x="8" y="56" width="23" height="23" fill="#618ca4"/>
        <rect x="32" y="56" width="23" height="23" fill="#74a995"/>
        <rect x="56" y="56" width="23" height="23" fill="#efc86f"/>
        <rect x="80" y="56" width="23" height="23" fill="#e28b5f"/>
        <rect x="8" y="80" width="23" height="23" fill="#355f80"/>
        <rect x="32" y="80" width="23" height="23" fill="#5d988d"/>
        <rect x="56" y="80" width="23" height="23" fill="#d8b65b"/>
        <rect x="80" y="80" width="23" height="23" fill="#bb493e"/>
      </g>
      <text x="56" y="139" text-anchor="middle" class="box-title">Input X</text>
    </g>

    <g id="input-split-stage1">
      <path d="M172 326 H218" class="connector"/>
      <circle cx="218" cy="326" r="4" fill="#33424f"/>
      <path d="M218 326 V215 H268" class="arrow"/>
      <path d="M218 326 V425 H268" class="arrow"/>
    </g>

    <g id="value-preserving-encoder">
      <rect x="280" y="180" width="220" height="70" rx="6" class="trainable"/>
      <text x="390" y="207" text-anchor="middle" class="box-title">Value-preserving</text>
      <text x="390" y="235" text-anchor="middle" class="box-title">encoder E<tspan baseline-shift="sub" font-size="14">&#966;</tspan></text>
    </g>

    <path d="M390 252 V283" class="arrow"/>

    <g id="stage1-latent-grid">
      <rect x="363" y="296" width="54" height="54" rx="6" class="tensor"/>
      <g fill="#4d8d73" opacity="0.92">
        <circle cx="373" cy="306" r="3.5"/><circle cx="384" cy="306" r="3.5"/><circle cx="395" cy="306" r="3.5"/><circle cx="406" cy="306" r="3.5"/>
        <circle cx="373" cy="317" r="3.5"/><circle cx="384" cy="317" r="3.5"/><circle cx="395" cy="317" r="3.5"/><circle cx="406" cy="317" r="3.5"/>
        <circle cx="373" cy="328" r="3.5"/><circle cx="384" cy="328" r="3.5"/><circle cx="395" cy="328" r="3.5"/><circle cx="406" cy="328" r="3.5"/>
        <circle cx="373" cy="339" r="3.5"/><circle cx="384" cy="339" r="3.5"/><circle cx="395" cy="339" r="3.5"/><circle cx="406" cy="339" r="3.5"/>
      </g>
      <text x="458" y="320" text-anchor="middle" class="box-title">Z</text>
      <text x="458" y="346" text-anchor="middle" class="tiny">8 &#215; 16 &#215; 16</text>
    </g>

    <path d="M500 327 H535 V215 H578" class="arrow"/>

    <g id="spatial-adapter-stage1">
      <rect x="590" y="180" width="320" height="70" rx="6" class="trainable"/>
      <text x="750" y="207" text-anchor="middle" class="box-title">Spatial adapter A<tspan baseline-shift="sub" font-size="14">&#952;</tspan></text>
      <text x="750" y="235" text-anchor="middle" class="small">fixed 2D PE &#183; 2&#215; self-attention &#183; residual</text>
    </g>

    <path d="M750 252 V289" class="arrow"/>

    <g id="student-input-sequence">
      <g fill="#b9decf" stroke="#3f7c65" stroke-width="1.5">
        <rect x="620" y="303" width="10" height="30" rx="2"/>
        <rect x="634" y="303" width="10" height="30" rx="2"/>
        <rect x="648" y="303" width="10" height="30" rx="2"/>
        <rect x="690" y="303" width="10" height="30" rx="2"/>
        <rect x="704" y="303" width="10" height="30" rx="2"/>
      </g>
      <text x="676" y="325" text-anchor="middle" class="tiny">...</text>
      <text x="795" y="333" text-anchor="middle" font-size="18" font-weight="700">256 spatial tokens</text>
      <text x="890" y="342" text-anchor="middle" font-size="32" font-weight="700">+</text>
      <rect x="910" y="290" width="96" height="74" rx="6" class="textual"/>
      <text x="958" y="334" text-anchor="middle" class="box-title">Probe</text>
    </g>

    <path d="M1006 327 H1022 V215 H1038" class="arrow"/>

    <g id="teacher-branch">
      <g id="qwen-tokenizer-stage1">
        <rect x="280" y="390" width="220" height="70" rx="6" class="frozen"/>
        <text x="390" y="417" text-anchor="middle" class="box-title">Frozen Qwen</text>
        <text x="390" y="445" text-anchor="middle" class="box-title">tokenizer</text>
      </g>

      <path d="M390 462 V537 H628" class="arrow"/>

      <g id="teacher-input-sequence">
        <rect x="640" y="500" width="230" height="74" rx="6" class="textual"/>
        <text x="755" y="544" text-anchor="middle" class="box-title">numeric text tokens</text>
        <text x="890" y="552" text-anchor="middle" font-size="32" font-weight="700">+</text>
        <rect x="910" y="500" width="96" height="74" rx="6" class="textual"/>
        <text x="958" y="544" text-anchor="middle" class="box-title">Probe</text>
      </g>

      <path d="M1006 537 H1022 V425 H1038" class="arrow"/>
    </g>

    <g id="shared-shallow-qwen">
      <g id="student-shallow-qwen">
        <rect x="1050" y="180" width="270" height="70" rx="7" class="frozen"/>
        <text x="1185" y="221" text-anchor="middle" font-size="20" font-weight="700">Frozen Qwen (layer &#8467;)</text>
        <path d="M1185 252 V287" class="arrow"/>
        <g id="student-hidden-vector">
          <path d="M1142 300 H1135 V352 H1142" class="vector-bracket"/>
          <path d="M1202 300 H1209 V352 H1202" class="vector-bracket"/>
          <rect x="1147" y="310" width="12" height="34" rx="2" fill="#add6c6" stroke="#3f7c65"/>
          <rect x="1163" y="310" width="12" height="34" rx="2" fill="#7fbea5" stroke="#3f7c65"/>
          <text x="1183" y="332" text-anchor="middle" class="tiny">...</text>
          <rect x="1193" y="310" width="12" height="34" rx="2" fill="#4d8d73" stroke="#3f7c65"/>
          <text x="1240" y="333" text-anchor="middle" font-size="20" font-weight="700" font-style="italic">h<tspan baseline-shift="sub" font-size="12">i</tspan><tspan baseline-shift="super" font-size="12">f</tspan></text>
        </g>
      </g>

      <g id="teacher-shallow-qwen">
        <rect x="1050" y="390" width="270" height="70" rx="7" class="frozen"/>
        <text x="1185" y="431" text-anchor="middle" font-size="20" font-weight="700">Frozen Qwen (layer &#8467;)</text>
        <path d="M1185 462 V497" class="arrow"/>
        <g id="teacher-hidden-vector">
          <path d="M1142 510 H1135 V562 H1142" class="vector-bracket-teacher"/>
          <path d="M1202 510 H1209 V562 H1202" class="vector-bracket-teacher"/>
          <rect x="1147" y="520" width="12" height="34" rx="2" fill="#f6dfa0" stroke="#9b7930"/>
          <rect x="1163" y="520" width="12" height="34" rx="2" fill="#d6b75f" stroke="#9b7930"/>
          <text x="1183" y="542" text-anchor="middle" class="tiny">...</text>
          <rect x="1193" y="520" width="12" height="34" rx="2" fill="#9b7930" stroke="#9b7930"/>
          <text x="1240" y="543" text-anchor="middle" font-size="20" font-weight="700" font-style="italic">h<tspan baseline-shift="sub" font-size="12">i</tspan><tspan baseline-shift="super" font-size="12">t</tspan></text>
        </g>
      </g>
    </g>

    <g id="stage1-alignment-loss">
      <path d="M1270 327 H1470" class="arrow-violet"/>
      <path d="M1270 537 H1470" class="arrow-violet"/>
      <rect x="1480" y="275" width="260" height="300" rx="7" class="loss-only"/>
      <text x="1610" y="304" text-anchor="middle" font-size="20" font-weight="700">Contrastive</text>
      <text x="1610" y="330" text-anchor="middle" font-size="20" font-weight="700">alignment</text>
      <g id="contrastive-matrix">
        <g id="text-pair-labels">
          <rect x="1570" y="350" width="28" height="28" rx="3" fill="#bdd9e7" stroke="#477f9d"/>
          <rect x="1598" y="350" width="28" height="28" rx="3" fill="#f2c4b1" stroke="#bd543e"/>
          <rect x="1626" y="350" width="28" height="28" rx="3" fill="#e3e8eb" stroke="#708390"/>
          <rect x="1654" y="350" width="28" height="28" rx="3" fill="#ddcee5" stroke="#76528b"/>
          <text x="1584" y="369" text-anchor="middle" font-size="13" font-weight="700">T<tspan baseline-shift="sub" font-size="9">1</tspan></text>
          <text x="1612" y="369" text-anchor="middle" font-size="13" font-weight="700">T<tspan baseline-shift="sub" font-size="9">2</tspan></text>
          <text x="1640" y="369" text-anchor="middle" font-size="13" font-weight="700">...</text>
          <text x="1668" y="369" text-anchor="middle" font-size="13" font-weight="700">T<tspan baseline-shift="sub" font-size="9">n</tspan></text>
        </g>

        <g id="field-pair-labels">
          <rect x="1536" y="386" width="28" height="28" rx="3" fill="#477f9d" stroke="#315f78"/>
          <rect x="1536" y="414" width="28" height="28" rx="3" fill="#bd543e" stroke="#8e3f2f"/>
          <rect x="1536" y="442" width="28" height="28" rx="3" fill="#708390" stroke="#526879"/>
          <rect x="1536" y="470" width="28" height="28" rx="3" fill="#76528b" stroke="#583d68"/>
          <text x="1550" y="405" text-anchor="middle" font-size="13" font-weight="700" fill="#ffffff">F<tspan baseline-shift="sub" font-size="9">1</tspan></text>
          <text x="1550" y="433" text-anchor="middle" font-size="13" font-weight="700" fill="#ffffff">F<tspan baseline-shift="sub" font-size="9">2</tspan></text>
          <text x="1550" y="461" text-anchor="middle" font-size="13" font-weight="700" fill="#ffffff">...</text>
          <text x="1550" y="489" text-anchor="middle" font-size="13" font-weight="700" fill="#ffffff">F<tspan baseline-shift="sub" font-size="9">n</tspan></text>
        </g>

        <rect x="1570" y="386" width="112" height="112" rx="2" class="matrix-bg"/>
        <g id="matched-pair-diagonal">
          <rect x="1570" y="386" width="28" height="28" fill="#79abc4" stroke="#477f9d"/>
          <rect x="1598" y="414" width="28" height="28" fill="#d98967" stroke="#bd543e"/>
          <rect x="1626" y="442" width="28" height="28" fill="#aab4bb" stroke="#708390"/>
          <rect x="1654" y="470" width="28" height="28" fill="#aa87ba" stroke="#76528b"/>
        </g>
        <g class="matrix-grid">
          <line x1="1598" y1="386" x2="1598" y2="498"/>
          <line x1="1626" y1="386" x2="1626" y2="498"/>
          <line x1="1654" y1="386" x2="1654" y2="498"/>
          <line x1="1570" y1="414" x2="1682" y2="414"/>
          <line x1="1570" y1="442" x2="1682" y2="442"/>
          <line x1="1570" y1="470" x2="1682" y2="470"/>
        </g>
      </g>
    </g>

    <g id="stage1-checkpoint-transfer">
      <rect x="690" y="598" width="460" height="34" rx="5" class="tensor"/>
      <text x="920" y="621" text-anchor="middle" class="small" font-weight="700">Stage-1 checkpoint: encoder E<tspan baseline-shift="sub" font-size="12">&#966;</tspan> + native spatial adapter A<tspan baseline-shift="sub" font-size="12">&#952;</tspan></text>
    </g>
  </g>

  <g id="stage2" transform="translate(0,130)">
    <rect x="40" y="600" width="1720" height="420" rx="8" class="panel"/>
    <circle cx="70" cy="632" r="18" fill="#33424f"/>
    <text x="64" y="640" font-size="23" font-weight="700" fill="#ffffff">2</text>
    <text x="100" y="641" class="panel-title">Natural-language grounding</text>
    <text x="1728" y="639" text-anchor="end" class="panel-note">direct prefix; no question-conditioned adapter</text>

    <g id="stage-transfer">
      <path d="M920 538 V574 H540 V660 H485 V683" class="arrow-teal dashed"/>
      <path d="M920 574 H938 V671" class="arrow-teal dashed"/>
      <text x="947" y="579" class="small" fill="#28745f">reuse native modules; cache Z during training</text>
    </g>

    <g id="stage2-input-grid" transform="translate(76,698)">
      <rect x="0" y="0" width="112" height="112" rx="6" class="neutral"/>
      <g stroke="#ffffff" stroke-width="2">
        <rect x="8" y="8" width="23" height="23" fill="#477f9d"/>
        <rect x="32" y="8" width="23" height="23" fill="#6fa5ad"/>
        <rect x="56" y="8" width="23" height="23" fill="#d9cf79"/>
        <rect x="80" y="8" width="23" height="23" fill="#d56b52"/>
        <rect x="8" y="32" width="23" height="23" fill="#3d718f"/>
        <rect x="32" y="32" width="23" height="23" fill="#86b9aa"/>
        <rect x="56" y="32" width="23" height="23" fill="#ebd88b"/>
        <rect x="80" y="32" width="23" height="23" fill="#c85745"/>
        <rect x="8" y="56" width="23" height="23" fill="#618ca4"/>
        <rect x="32" y="56" width="23" height="23" fill="#74a995"/>
        <rect x="56" y="56" width="23" height="23" fill="#efc86f"/>
        <rect x="80" y="56" width="23" height="23" fill="#e28b5f"/>
        <rect x="8" y="80" width="23" height="23" fill="#355f80"/>
        <rect x="32" y="80" width="23" height="23" fill="#5d988d"/>
        <rect x="56" y="80" width="23" height="23" fill="#d8b65b"/>
        <rect x="80" y="80" width="23" height="23" fill="#bb493e"/>
      </g>
      <text x="56" y="137" text-anchor="middle" class="box-title">field patch X</text>
    </g>

    <path d="M194 752 H216" class="arrow"/>

    <rect x="220" y="705" width="128" height="96" rx="6" class="fixed"/>
    <text x="284" y="735" text-anchor="middle" class="box-title">Normalize</text>
    <text x="284" y="765" text-anchor="middle" class="box-text mono">z=(X-&#956;)/&#963;</text>
    <text x="284" y="790" text-anchor="middle" class="small">stats stay in text</text>

    <path d="M350 752 H374" class="arrow"/>

    <rect x="378" y="690" width="214" height="126" rx="6" class="fixed"/>
    <text x="485" y="720" text-anchor="middle" class="box-title">Encoder E<tspan baseline-shift="sub" font-size="14">&#966;</tspan></text>
    <text x="485" y="749" text-anchor="middle" class="box-text">reused from Stage 1</text>
    <text x="485" y="777" text-anchor="middle" class="small">frozen; latent cached</text>
    <text x="485" y="802" text-anchor="middle" class="small">no decoder in QA path</text>

    <path d="M594 752 H622" class="arrow"/>

    <g id="stage2-latent-grid" transform="translate(626,697)">
      <rect x="0" y="0" width="112" height="112" rx="6" class="tensor"/>
      <g fill="#4d8d73" opacity="0.92">
        <circle cx="18" cy="18" r="7"/><circle cx="43" cy="18" r="7"/><circle cx="68" cy="18" r="7"/><circle cx="93" cy="18" r="7"/>
        <circle cx="18" cy="43" r="7"/><circle cx="43" cy="43" r="7"/><circle cx="68" cy="43" r="7"/><circle cx="93" cy="43" r="7"/>
        <circle cx="18" cy="68" r="7"/><circle cx="43" cy="68" r="7"/><circle cx="68" cy="68" r="7"/><circle cx="93" cy="68" r="7"/>
        <circle cx="18" cy="93" r="7"/><circle cx="43" cy="93" r="7"/><circle cx="68" cy="93" r="7"/><circle cx="93" cy="93" r="7"/>
      </g>
      <text x="56" y="137" text-anchor="middle" class="box-title">Z: 256 cells</text>
    </g>

    <path d="M741 752 H770" class="arrow"/>

    <rect x="774" y="675" width="334" height="158" rx="6" class="trainable"/>
    <text x="941" y="705" text-anchor="middle" class="box-title">Spatial adapter A<tspan baseline-shift="sub" font-size="14">&#952;</tspan></text>
    <text x="941" y="733" text-anchor="middle" class="box-text">initialized from Stage 1</text>
    <text x="941" y="760" text-anchor="middle" class="small">same 256 positions + fixed 2D PE</text>
    <text x="941" y="787" text-anchor="middle" class="small">all 8.94M adapter params updated</text>
    <text x="941" y="814" text-anchor="middle" class="small">small LR; Qwen remains frozen</text>

    <path d="M1110 752 H1130" class="arrow"/>

    <g id="stage2-input-sequence">
      <rect x="1134" y="682" width="202" height="143" rx="6" class="neutral"/>
      <text x="1235" y="708" text-anchor="middle" class="small" font-weight="700">inputs_embeds</text>
      <g transform="translate(1148,721)">
        <rect x="0" y="0" width="18" height="36" rx="2" class="tensor"/>
        <rect x="22" y="0" width="18" height="36" rx="2" class="tensor"/>
        <rect x="44" y="0" width="18" height="36" rx="2" class="tensor"/>
        <text x="75" y="25" class="small">...</text>
        <rect x="105" y="0" width="18" height="36" rx="2" class="tensor"/>
        <rect x="127" y="0" width="18" height="36" rx="2" class="tensor"/>
        <rect x="149" y="0" width="18" height="36" rx="2" class="tensor"/>
      </g>
      <text x="1235" y="780" text-anchor="middle" class="small">p1 ... p256</text>
      <rect x="1149" y="792" width="172" height="22" rx="3" class="textual"/>
      <text x="1235" y="809" text-anchor="middle" class="tiny">question + options</text>
    </g>

    <path d="M1338 752 H1358" class="arrow"/>

    <g id="full-frozen-qwen">
      <rect x="1362" y="675" width="246" height="160" rx="7" class="frozen"/>
      <text x="1485" y="708" text-anchor="middle" font-size="20" font-weight="700">Frozen Qwen2.5-14B</text>
      <text x="1485" y="737" text-anchor="middle" class="small">all transformer layers</text>
      <rect x="1402" y="755" width="166" height="35" rx="4" fill="#dbe5eb" stroke="#708390"/>
      <text x="1485" y="779" text-anchor="middle" class="small">causal self-attention</text>
      <text x="1485" y="816" text-anchor="middle" class="small">only tensor-text fusion site</text>
    </g>

    <path d="M1610 752 H1624" class="arrow"/>

    <g id="answer-output">
      <rect x="1628" y="690" width="106" height="123" rx="6" class="neutral"/>
      <text x="1681" y="717" text-anchor="middle" class="box-title">Answer</text>
      <g transform="translate(1642,732)">
        <rect x="0" y="0" width="27" height="27" rx="3" class="textual"/><text x="13.5" y="20" text-anchor="middle" class="small" font-weight="700">A</text>
        <rect x="36" y="0" width="27" height="27" rx="3" class="textual"/><text x="49.5" y="20" text-anchor="middle" class="small" font-weight="700">B</text>
        <rect x="0" y="36" width="27" height="27" rx="3" class="textual"/><text x="13.5" y="56" text-anchor="middle" class="small" font-weight="700">C</text>
        <rect x="36" y="36" width="27" height="27" rx="3" class="textual"/><text x="49.5" y="56" text-anchor="middle" class="small" font-weight="700">D</text>
      </g>
    </g>

    <g id="natural-language-question">
      <rect x="850" y="867" width="390" height="78" rx="6" class="textual"/>
      <text x="1045" y="895" text-anchor="middle" class="box-title">Natural-language question</text>
      <text x="1045" y="921" text-anchor="middle" class="small">task instruction, coordinates, choices, optional &#956;/&#963;</text>
      <path d="M1242 906 H1262 V829" class="arrow"/>
    </g>

    <text x="941" y="858" text-anchor="middle" class="small" fill="#28745f">A<tspan baseline-shift="sub" font-size="12">&#952;</tspan> sees Z only; the question bypasses the adapter</text>

    <g id="stage2-loss">
      <path d="M1681 815 V846" class="arrow-violet"/>
      <rect x="1580" y="850" width="154" height="102" rx="6" class="trainable"/>
      <text x="1657" y="876" text-anchor="middle" class="box-title">QA objective</text>
      <text x="1657" y="901" text-anchor="middle" class="tiny">restricted-choice CE</text>
      <text x="1657" y="923" text-anchor="middle" class="tiny">+ 0.05 LM CE</text>
      <text x="1657" y="945" text-anchor="middle" class="tiny">+ no-latent margin</text>
    </g>

    <g id="grounding-audit">
      <rect x="1260" y="872" width="300" height="72" rx="6" class="fixed"/>
      <text x="1410" y="898" text-anchor="middle" class="box-title">Grounding audit</text>
      <text x="1410" y="924" text-anchor="middle" class="small">correct / shuffled / zero_latent / no_latent</text>
    </g>

    <g id="constraints-note">
      <rect x="76" y="955" width="1240" height="44" rx="5" fill="#ffffff" stroke="#b7c2c9" stroke-width="1.5"/>
      <text x="696" y="983" text-anchor="middle" class="small">No decoder at inference  |  no Stage-1 whitening/alignment head in Stage 2  |  no parsed coordinates or task-specific numerical head</text>
    </g>
  </g>

  <text x="900" y="1184" text-anchor="middle" class="small">Spatial identity is preserved by constant token count and row-major indexing; attention contextualizes each token without pooling it away.</text>
</svg>
