<?xml version="1.0" encoding="UTF-8"?>
<svg xmlns="http://www.w3.org/2000/svg" width="1600" height="1645" viewBox="0 0 1600 1645" role="img" aria-labelledby="figure-title figure-desc">
  <title id="figure-title">Dense cross-attention field-to-LLM interface</title>
  <desc id="figure-desc">Stage 1 aligns field and numerical-text representations. Stage 2 builds content and exact-value memory for every field cell and injects gated dense cross-attention after frozen Qwen layers 8, 20, and 32. Inference reuses the fixed memory and bridges.</desc>
  <defs>
    <marker id="arrow-dark" markerWidth="10" markerHeight="10" refX="9" refY="5" orient="auto" markerUnits="userSpaceOnUse"><path d="M0,0 L10,5 L0,10 Z" fill="#33424f"/></marker>
    <marker id="arrow-small" markerWidth="8" markerHeight="8" refX="7" refY="4" orient="auto" markerUnits="userSpaceOnUse"><path d="M0,0 L8,4 L0,8 Z" fill="#33424f"/></marker>
    <marker id="arrow-violet" markerWidth="10" markerHeight="10" refX="9" refY="5" orient="auto" markerUnits="userSpaceOnUse"><path d="M0,0 L10,5 L0,10 Z" fill="#76528b"/></marker>
    <linearGradient id="field-base" x1="0" y1="1" x2="1" y2="0">
      <stop offset="0" stop-color="#315f86"/><stop offset="0.34" stop-color="#5d9fa4"/>
      <stop offset="0.62" stop-color="#d8cf74"/><stop offset="1" stop-color="#c95443"/>
    </linearGradient>
    <radialGradient id="field-hotspot" cx="72%" cy="30%" r="55%">
      <stop offset="0" stop-color="#db5d44" stop-opacity="0.98"/><stop offset="0.38" stop-color="#e7a15e" stop-opacity="0.82"/>
      <stop offset="0.75" stop-color="#efd681" stop-opacity="0.18"/><stop offset="1" stop-color="#efd681" stop-opacity="0"/>
    </radialGradient>
    <radialGradient id="field-coolspot" cx="20%" cy="80%" r="48%">
      <stop offset="0" stop-color="#2c668e" stop-opacity="0.92"/><stop offset="0.58" stop-color="#4f8fa5" stop-opacity="0.42"/>
      <stop offset="1" stop-color="#4f8fa5" stop-opacity="0"/>
    </radialGradient>
    <style>
      text { font-family: Arial, Helvetica, sans-serif; fill: #1f2a33; letter-spacing: 0; }
      .title { font-size: 34px; font-weight: 700; } .panel-title { font-size: 25px; font-weight: 700; }
      .stage-badge { fill: #173b5e; stroke: #0f2b45; stroke-width: 1.5; }
      .stage-badge-text { font-size: 18px; font-weight: 700; fill: #ffffff; }
      .lane { font-size: 18px; font-weight: 700; fill: #40515d; } .box-title { font-size: 18px; font-weight: 700; }
      .box-text { font-size: 15px; fill: #43535f; } .small { font-size: 14px; fill: #50606c; } .tiny { font-size: 12px; fill: #50606c; }
      .panel { fill: #f8fafb; stroke: #c8d2d9; stroke-width: 2; }
      .trainable { fill: #fbe5de; stroke: #bd543e; stroke-width: 2.4; }
      .frozen { fill: #e9eef2; stroke: #526879; stroke-width: 2.4; }
      .field-token { fill: #dff0e8; stroke: #3f7c65; stroke-width: 2.2; }
      .text-token { fill: #fff2c9; stroke: #9b7930; stroke-width: 2.2; }
      .memory { fill: #eef7f2; stroke: #3f7c65; stroke-width: 2.4; }
      .loss-only { fill: #f0e8f4; stroke: #76528b; stroke-width: 2.3; stroke-dasharray: 8 6; }
      .neutral { fill: #ffffff; stroke: #81909b; stroke-width: 2.1; }
      .fixed-bridge { fill: #f8fafb; stroke: #526879; stroke-width: 1.5; }
      .arrow { fill: none; stroke: #33424f; stroke-width: 2.5; marker-end: url(#arrow-dark); }
      .arrow-small { fill: none; stroke: #33424f; stroke-width: 2.3; marker-end: url(#arrow-small); }
      .arrow-violet { fill: none; stroke: #76528b; stroke-width: 2.5; stroke-dasharray: 7 6; marker-end: url(#arrow-violet); }
      .connector { fill: none; stroke: #60717d; stroke-width: 2.2; }
      .bracket-field { fill: none; stroke: #3f7c65; stroke-width: 2.3; } .bracket-text { fill: none; stroke: #9b7930; stroke-width: 2.3; }
    </style>
    <g id="heatmap">
      <rect x="0" y="0" width="100" height="100" rx="6" class="neutral"/>
      <rect x="7" y="7" width="86" height="86" rx="3" fill="url(#field-base)"/>
      <rect x="7" y="7" width="86" height="86" rx="3" fill="url(#field-hotspot)"/>
      <rect x="7" y="7" width="86" height="86" rx="3" fill="url(#field-coolspot)"/>
      <g fill="none" stroke="#ffffff" stroke-width="1.2" opacity="0.58">
        <path d="M14 77 C27 61, 40 65, 51 50 S73 24, 90 27"/>
        <path d="M12 88 C27 73, 44 76, 58 57 S78 36, 92 38"/>
        <path d="M19 46 C31 36, 43 38, 53 27 S72 14, 85 17"/>
      </g>
    </g>
    <g id="latent-map">
      <rect x="0" y="0" width="58" height="58" rx="6" class="field-token"/>
      <g fill="#4d8d73">
        <circle cx="10" cy="10" r="3"/><circle cx="22" cy="10" r="3"/><circle cx="34" cy="10" r="3"/><circle cx="46" cy="10" r="3"/>
        <circle cx="10" cy="22" r="3"/><circle cx="22" cy="22" r="3"/><circle cx="34" cy="22" r="3"/><circle cx="46" cy="22" r="3"/>
        <circle cx="10" cy="34" r="3"/><circle cx="22" cy="34" r="3"/><circle cx="34" cy="34" r="3"/><circle cx="46" cy="34" r="3"/>
        <circle cx="10" cy="46" r="3"/><circle cx="22" cy="46" r="3"/><circle cx="34" cy="46" r="3"/><circle cx="46" cy="46" r="3"/>
      </g>
    </g>
    <g id="concat-node">
      <circle cx="16" cy="16" r="15" fill="#ffffff" stroke="#33424f" stroke-width="2.2"/>
      <path d="M9 16 H23 M16 9 V23" fill="none" stroke="#33424f" stroke-width="2.4" stroke-linecap="round"/>
    </g>
  </defs>
  <rect x="0" y="0" width="1600" height="1645" fill="#ffffff"/>
  <g id="header">
    <text x="45" y="47" class="title">Dense Cross-Attention Field-to-LLM Interface</text>
    <g id="legend" transform="translate(820,20)">
      <rect x="0" y="0" width="27" height="21" rx="4" class="trainable"/><text x="36" y="17" class="small">trainable</text>
      <rect x="115" y="0" width="27" height="21" rx="4" class="frozen"/><text x="151" y="17" class="small">frozen</text>
      <rect x="220" y="0" width="27" height="21" rx="4" class="field-token"/><text x="256" y="17" class="small">field embedding</text>
      <rect x="385" y="0" width="27" height="21" rx="4" class="text-token"/><text x="421" y="17" class="small">text embedding</text>
      <rect x="555" y="0" width="27" height="21" rx="4" class="loss-only"/><text x="591" y="17" class="small">training loss</text>
    </g>
  </g>

  <g id="stage1">
    <rect x="40" y="82" width="1520" height="465" rx="8" class="panel"/>
    <rect x="52" y="99" width="100" height="36" rx="18" class="stage-badge"/>
    <text x="102" y="124" text-anchor="middle" class="stage-badge-text">Stage 1</text>
    <text x="170" y="126" class="panel-title">Field-text alignment</text>
    <use href="#heatmap" x="55" y="250"/><text x="105" y="375" text-anchor="middle" class="box-title">Field X</text>
    <path d="M155 300 H175" class="connector"/><circle cx="175" cy="300" r="4" fill="#33424f"/>
    <path d="M175 300 V210 H198" class="arrow"/><path d="M175 300 V437 H198" class="arrow"/>

    <text x="320" y="162" text-anchor="middle" class="lane">Field branch (student)</text>
    <rect x="210" y="178" width="220" height="64" rx="6" class="trainable"/>
    <text x="320" y="216" text-anchor="middle" class="box-title">Value-preserving encoder</text>
    <path d="M320 242 V259" class="arrow"/>
    <use href="#latent-map" x="291" y="271"/>
    <text x="320" y="350" text-anchor="middle" class="small">Z &#8712; &#8477;<tspan baseline-shift="super" font-size="10">m&#215;n&#215;d<tspan baseline-shift="sub" font-size="8">E</tspan></tspan></text>
    <path d="M349 300 H470 V210 H498" class="arrow"/>

    <rect x="510" y="178" width="280" height="64" rx="6" class="trainable"/>
    <text x="650" y="203" text-anchor="middle" class="box-title">Spatial adapter</text><text x="650" y="228" text-anchor="middle" class="box-text">2D position + spatial context</text>
    <path d="M650 242 V271" class="arrow"/>
    <g id="field-token-row"><g fill="#b9decf" stroke="#3f7c65" stroke-width="1.5">
      <rect x="602" y="283" width="11" height="34" rx="2"/><rect x="616" y="283" width="11" height="34" rx="2"/><rect x="630" y="283" width="11" height="34" rx="2"/>
      <rect x="659" y="283" width="11" height="34" rx="2"/><rect x="673" y="283" width="11" height="34" rx="2"/><rect x="687" y="283" width="11" height="34" rx="2"/>
    </g><text x="650" y="305" text-anchor="middle" class="tiny">&#8943;</text><text x="650" y="350" text-anchor="middle" class="small" font-weight="700">mn field tokens</text></g>
    <path d="M699 300 H812" class="arrow"/>
    <use href="#concat-node" x="814" y="284"/>

    <text x="320" y="390" text-anchor="middle" class="lane">Text branch (teacher)</text>
    <rect x="210" y="405" width="220" height="64" rx="6" class="frozen"/>
    <text x="320" y="443" text-anchor="middle" class="box-title">Qwen tokenizer</text>
    <path d="M430 437 H498" class="arrow"/>
    <rect x="510" y="407" width="280" height="60" rx="6" class="text-token"/>
    <text x="650" y="444" text-anchor="middle" class="box-title">Numeric text tokens</text>
    <path d="M790 437 H812" class="arrow"/>
    <use href="#concat-node" x="814" y="421"/>

    <g id="shared-probe">
      <rect x="778" y="338" width="104" height="62" rx="6" class="text-token"/><text x="830" y="376" text-anchor="middle" class="box-title">Probe</text>
      <path d="M830 338 V318" class="arrow"/><path d="M830 400 V419" class="arrow"/>
    </g>
    <path d="M830 284 V210 H858" class="arrow"/><path d="M846 437 H858" class="arrow"/>
    <rect x="870" y="178" width="215" height="64" rx="6" class="frozen"/><text x="977" y="216" text-anchor="middle" class="box-title">Frozen Qwen (layer &#8467;)</text>
    <rect x="870" y="405" width="215" height="64" rx="6" class="frozen"/><text x="977" y="443" text-anchor="middle" class="box-title">Frozen Qwen (layer &#8467;)</text>
    <path d="M1085 210 H1103" class="arrow"/><path d="M1085 437 H1103" class="arrow"/>

    <g id="field-hidden" transform="translate(1122,188)"><path d="M0 0 H-7 V44 H0" class="bracket-field"/><rect x="5" y="7" width="11" height="30" rx="2" fill="#add6c6" stroke="#3f7c65"/><rect x="19" y="7" width="11" height="30" rx="2" fill="#7fbea5" stroke="#3f7c65"/><text x="35" y="27" text-anchor="middle" class="tiny">&#8943;</text><rect x="40" y="7" width="11" height="30" rx="2" fill="#6aa98f" stroke="#3f7c65"/><rect x="54" y="7" width="11" height="30" rx="2" fill="#4d8d73" stroke="#3f7c65"/><path d="M70 0 H77 V44 H70" class="bracket-field"/></g>
    <path d="M1182 225 V264" class="arrow"/><text x="1182" y="283" text-anchor="middle" font-size="18" font-weight="700" font-style="italic">h<tspan baseline-shift="super" font-size="11">f</tspan></text>
    <path d="M1204 277 H1238" class="arrow-violet"/>

    <g id="text-hidden" transform="translate(1122,415)"><path d="M0 0 H-7 V44 H0" class="bracket-text"/><rect x="5" y="7" width="11" height="30" rx="2" fill="#f6dfa0" stroke="#9b7930"/><rect x="19" y="7" width="11" height="30" rx="2" fill="#d6b75f" stroke="#9b7930"/><text x="35" y="27" text-anchor="middle" class="tiny">&#8943;</text><rect x="40" y="7" width="11" height="30" rx="2" fill="#bd9840" stroke="#9b7930"/><rect x="54" y="7" width="11" height="30" rx="2" fill="#9b7930" stroke="#9b7930"/><path d="M70 0 H77 V44 H70" class="bracket-text"/></g>
    <path d="M1182 422 V384" class="arrow"/><text x="1182" y="377" text-anchor="middle" font-size="18" font-weight="700" font-style="italic">h<tspan baseline-shift="super" font-size="11">t</tspan></text>
    <path d="M1204 371 H1238" class="arrow-violet"/>
    <g id="stage1-alignment-matrix" transform="translate(1250,209)">
      <rect x="0" y="0" width="220" height="230" rx="7" class="loss-only"/>
      <text x="110" y="28" text-anchor="middle" font-size="16" font-weight="700">Contrastive alignment</text>
      <g transform="translate(37,47)">
        <rect x="34" y="0" width="28" height="28" rx="3" fill="#bdd9e7" stroke="#477f9d"/><rect x="62" y="0" width="28" height="28" rx="3" fill="#f2c4b1" stroke="#bd543e"/><rect x="90" y="0" width="28" height="28" rx="3" fill="#e3e8eb" stroke="#708390"/><rect x="118" y="0" width="28" height="28" rx="3" fill="#ddcee5" stroke="#76528b"/>
        <text x="48" y="19" text-anchor="middle" font-size="11" font-weight="700">T<tspan baseline-shift="sub" font-size="8">1</tspan></text><text x="76" y="19" text-anchor="middle" font-size="11" font-weight="700">T<tspan baseline-shift="sub" font-size="8">2</tspan></text><text x="104" y="19" text-anchor="middle" font-size="11" font-weight="700">&#8943;</text><text x="132" y="19" text-anchor="middle" font-size="11" font-weight="700">T<tspan baseline-shift="sub" font-size="8">n</tspan></text>
        <rect x="0" y="34" width="28" height="28" rx="3" fill="#477f9d" stroke="#315f78"/><rect x="0" y="62" width="28" height="28" rx="3" fill="#bd543e" stroke="#8e3f2f"/><rect x="0" y="90" width="28" height="28" rx="3" fill="#708390" stroke="#526879"/><rect x="0" y="118" width="28" height="28" rx="3" fill="#76528b" stroke="#583d68"/>
        <text x="14" y="53" text-anchor="middle" font-size="11" font-weight="700" fill="#ffffff">F<tspan baseline-shift="sub" font-size="8">1</tspan></text><text x="14" y="81" text-anchor="middle" font-size="11" font-weight="700" fill="#ffffff">F<tspan baseline-shift="sub" font-size="8">2</tspan></text><text x="14" y="109" text-anchor="middle" font-size="11" font-weight="700" fill="#ffffff">&#8943;</text><text x="14" y="137" text-anchor="middle" font-size="11" font-weight="700" fill="#ffffff">F<tspan baseline-shift="sub" font-size="8">n</tspan></text>
        <rect x="34" y="34" width="112" height="112" fill="#f4eef7" stroke="#76528b"/>
        <rect x="34" y="34" width="28" height="28" fill="#79abc4"/><rect x="62" y="62" width="28" height="28" fill="#d98967"/><rect x="90" y="90" width="28" height="28" fill="#aab4bb"/><rect x="118" y="118" width="28" height="28" fill="#aa87ba"/>
        <g class="matrix-grid"><line x1="62" y1="34" x2="62" y2="146"/><line x1="90" y1="34" x2="90" y2="146"/><line x1="118" y1="34" x2="118" y2="146"/><line x1="34" y1="62" x2="146" y2="62"/><line x1="34" y1="90" x2="146" y2="90"/><line x1="34" y1="118" x2="146" y2="118"/></g>
      </g>
    </g>
  </g>

  <g id="stage2-dense-cross-attention">
    <rect x="40" y="572" width="1520" height="590" rx="8" class="panel"/>
    <rect x="52" y="589" width="100" height="36" rx="18" class="stage-badge"/>
    <text x="102" y="614" text-anchor="middle" class="stage-badge-text">Stage 2</text>
    <text x="170" y="616" class="panel-title">Dense cross-attention training</text>

    <use href="#heatmap" x="55" y="755"/>
    <text x="105" y="880" text-anchor="middle" class="box-title">Field X</text>
    <path d="M155 805 H203" class="arrow"/>
    <rect x="215" y="775" width="140" height="60" rx="6" class="frozen"/>
    <text x="285" y="800" text-anchor="middle" class="box-title">Trained</text>
    <text x="285" y="824" text-anchor="middle" class="box-title">encoder</text>
    <path d="M355 805 H388" class="arrow"/>
    <use href="#latent-map" x="400" y="776"/>
    <text x="429" y="857" text-anchor="middle" class="small">Z &#8712; &#8477;<tspan baseline-shift="super" font-size="10">m&#215;n&#215;d<tspan baseline-shift="sub" font-size="8">E</tspan></tspan></text>
    <path d="M458 805 H485" class="connector"/>
    <circle cx="485" cy="805" r="4" fill="#33424f"/>

    <path d="M485 805 V675 H508" class="arrow"/>
    <rect x="520" y="645" width="160" height="60" rx="6" class="frozen"/>
    <text x="600" y="670" text-anchor="middle" class="box-title">Trained</text>
    <text x="600" y="694" text-anchor="middle" class="box-title">adapter</text>
    <path d="M680 675 H708" class="arrow"/>
    <rect x="720" y="645" width="160" height="60" rx="6" class="trainable"/>
    <text x="800" y="670" text-anchor="middle" class="box-title">Content</text>
    <text x="800" y="694" text-anchor="middle" class="box-title">LayerNorm</text>
    <path d="M880 675 H908" class="arrow"/>
    <rect x="920" y="645" width="210" height="60" rx="6" class="field-token"/>
    <text x="1025" y="670" text-anchor="middle" class="box-title">Content states</text>
    <text x="1025" y="694" text-anchor="middle" class="box-title" font-style="italic">C(X)</text>
    <path d="M1025 705 V743" class="arrow"/>

    <path d="M485 805 V925 H508" class="arrow"/>
    <text x="495" y="885" class="small">first channel <tspan font-style="italic">z</tspan></text>
    <rect x="520" y="895" width="180" height="60" rx="6" class="trainable"/>
    <text x="610" y="920" text-anchor="middle" class="box-title">Trainable</text>
    <text x="610" y="944" text-anchor="middle" class="box-title">value encoder</text>
    <path d="M700 925 H718" class="arrow"/>
    <rect x="730" y="895" width="155" height="60" rx="6" class="field-token"/>
    <text x="807.5" y="920" text-anchor="middle" font-size="16" font-weight="700">Value embeddings</text>
    <text x="807.5" y="944" text-anchor="middle" class="box-title" font-style="italic">E<tspan baseline-shift="sub" font-size="12">z</tspan>(X)</text>
    <path d="M885 925 H908" class="arrow-small"/>

    <rect x="920" y="755" width="210" height="190" rx="7" class="memory"/>
    <text x="1025" y="786" text-anchor="middle" class="box-title">Shared tensor memory</text>
    <g fill="#c9e5da" stroke="#3f7c65" stroke-width="1.2">
      <rect x="947" y="831" width="26" height="20" rx="2"/><rect x="980" y="831" width="26" height="20" rx="2"/><rect x="1013" y="831" width="26" height="20" rx="2"/><rect x="1046" y="831" width="26" height="20" rx="2"/><rect x="1079" y="831" width="26" height="20" rx="2"/>
      <rect x="947" y="858" width="26" height="20" rx="2"/><rect x="980" y="858" width="26" height="20" rx="2"/><rect x="1013" y="858" width="26" height="20" rx="2"/><rect x="1046" y="858" width="26" height="20" rx="2"/><rect x="1079" y="858" width="26" height="20" rx="2"/>
      <rect x="947" y="885" width="26" height="20" rx="2"/><rect x="980" y="885" width="26" height="20" rx="2"/><rect x="1013" y="885" width="26" height="20" rx="2"/><rect x="1046" y="885" width="26" height="20" rx="2"/><rect x="1079" y="885" width="26" height="20" rx="2"/>
    </g>

    <path d="M1130 870 H1160" class="connector"/>
    <path d="M1160 835 V955" class="connector"/>
    <circle cx="1160" cy="835" r="3.5" fill="#60717d"/>
    <circle cx="1160" cy="895" r="3.5" fill="#60717d"/>
    <circle cx="1160" cy="955" r="3.5" fill="#60717d"/>

    <rect x="1215" y="635" width="280" height="42" rx="6" class="neutral"/>
    <text x="1355" y="662" text-anchor="middle" font-size="16" font-weight="700">Natural-language question q</text>
    <path d="M1355 677 V689" class="arrow-small"/>
    <rect x="1200" y="695" width="310" height="310" rx="7" class="frozen"/>
    <text x="1355" y="724" text-anchor="middle" font-size="17" font-weight="700">Frozen Qwen</text>
    <text x="1355" y="750" text-anchor="middle" font-size="14">Tokenizer + embedding</text>
    <text x="1355" y="773" text-anchor="middle" font-size="14">Decoder + LM head</text>
    <path d="M1355 788 V977" class="arrow-small"/>
    <path d="M1160 835 H1323" class="arrow-small"/>
    <path d="M1160 895 H1323" class="arrow-small"/>
    <path d="M1160 955 H1323" class="arrow-small"/>
    <circle cx="1355" cy="835" r="23" class="trainable"/>
    <circle cx="1355" cy="895" r="23" class="trainable"/>
    <circle cx="1355" cy="955" r="23" class="trainable"/>
    <text x="1355" y="841" text-anchor="middle" font-size="13" font-weight="700">CA<tspan baseline-shift="sub" font-size="9">8</tspan></text>
    <text x="1355" y="901" text-anchor="middle" font-size="13" font-weight="700">CA<tspan baseline-shift="sub" font-size="9">20</tspan></text>
    <text x="1355" y="961" text-anchor="middle" font-size="13" font-weight="700">CA<tspan baseline-shift="sub" font-size="9">32</tspan></text>
    <text x="1455" y="992" text-anchor="end" class="tiny">CA<tspan baseline-shift="sub" font-size="9">&#8467;</tspan>: gated cross-attention after layer &#8467;</text>
    <path d="M1355 1005 V1021" class="arrow-small"/>
    <rect x="1210" y="1025" width="290" height="40" rx="6" class="neutral"/>
    <text x="1355" y="1051" text-anchor="middle" class="box-title">Answer logits</text>
    <path d="M1355 1065 V1088" class="arrow-small"/>
    <rect x="1210" y="1100" width="290" height="38" rx="6" class="neutral"/>
    <text x="1355" y="1125" text-anchor="middle" class="box-title">Answer</text>

    <path d="M807.5 955 V966" class="arrow-small"/>
    <rect x="715" y="970" width="185" height="36" rx="5" class="trainable"/>
    <text x="807.5" y="994" text-anchor="middle" font-size="15" font-weight="700">Linear z readout</text>
    <path d="M807.5 1006 V1021" class="arrow-violet"/>
    <rect x="715" y="1025" width="185" height="40" rx="7" class="loss-only"/>
    <text x="807.5" y="1051" text-anchor="middle" font-size="16" font-weight="700">Reconstruction loss</text>
    <path d="M1210 1045 H1142" class="arrow-violet"/>
    <rect x="920" y="1025" width="210" height="40" rx="7" class="loss-only"/>
    <text x="1025" y="1051" text-anchor="middle" font-size="16" font-weight="700">QA + matched losses</text>
  </g>

  <g id="inference">
    <rect x="40" y="1187" width="1520" height="425" rx="8" class="panel"/>
    <rect x="52" y="1204" width="110" height="36" rx="18" class="stage-badge"/>
    <text x="107" y="1229" text-anchor="middle" class="stage-badge-text">Inference</text>
    <text x="180" y="1231" class="panel-title">Dense cross-attention inference</text>

    <use href="#heatmap" x="55" y="1368"/>
    <text x="105" y="1493" text-anchor="middle" class="box-title">Field X</text>
    <path d="M155 1418 H203" class="arrow"/>
    <rect x="215" y="1388" width="140" height="60" rx="6" class="frozen"/>
    <text x="285" y="1413" text-anchor="middle" class="box-title">Trained</text>
    <text x="285" y="1437" text-anchor="middle" class="box-title">encoder</text>
    <path d="M355 1418 H388" class="arrow"/>
    <use href="#latent-map" x="400" y="1389"/>
    <text x="429" y="1470" text-anchor="middle" class="small">Z &#8712; &#8477;<tspan baseline-shift="super" font-size="10">m&#215;n&#215;d<tspan baseline-shift="sub" font-size="8">E</tspan></tspan></text>
    <path d="M458 1418 H485" class="connector"/>
    <circle cx="485" cy="1418" r="4" fill="#33424f"/>

    <path d="M485 1418 V1295 H508" class="arrow"/>
    <rect x="520" y="1265" width="160" height="60" rx="6" class="frozen"/>
    <text x="600" y="1290" text-anchor="middle" class="box-title">Trained</text>
    <text x="600" y="1314" text-anchor="middle" class="box-title">adapter</text>
    <path d="M680 1295 H708" class="arrow"/>
    <rect x="720" y="1265" width="160" height="60" rx="6" class="frozen"/>
    <text x="800" y="1290" text-anchor="middle" class="box-title">Content</text>
    <text x="800" y="1314" text-anchor="middle" class="box-title">LayerNorm</text>
    <path d="M880 1295 H908" class="arrow"/>
    <rect x="920" y="1265" width="210" height="60" rx="6" class="field-token"/>
    <text x="1025" y="1290" text-anchor="middle" class="box-title">Content states</text>
    <text x="1025" y="1314" text-anchor="middle" class="box-title" font-style="italic">C(X)</text>
    <path d="M1025 1325 V1338" class="arrow-small"/>

    <path d="M485 1418 V1537 H508" class="arrow"/>
    <text x="495" y="1502" class="small">first channel <tspan font-style="italic">z</tspan></text>
    <rect x="520" y="1507" width="180" height="60" rx="6" class="frozen"/>
    <text x="610" y="1532" text-anchor="middle" class="box-title">Fixed</text>
    <text x="610" y="1556" text-anchor="middle" class="box-title">value encoder</text>
    <path d="M700 1537 H718" class="arrow"/>
    <rect x="730" y="1507" width="155" height="60" rx="6" class="field-token"/>
    <text x="807.5" y="1532" text-anchor="middle" font-size="16" font-weight="700">Value embeddings</text>
    <text x="807.5" y="1556" text-anchor="middle" class="box-title" font-style="italic">E<tspan baseline-shift="sub" font-size="12">z</tspan>(X)</text>
    <path d="M885 1537 H908" class="arrow"/>

    <rect x="920" y="1350" width="210" height="200" rx="7" class="memory"/>
    <text x="1025" y="1381" text-anchor="middle" class="box-title">Shared tensor memory</text>
    <g fill="#c9e5da" stroke="#3f7c65" stroke-width="1.2">
      <rect x="947" y="1408" width="26" height="20" rx="2"/><rect x="980" y="1408" width="26" height="20" rx="2"/><rect x="1013" y="1408" width="26" height="20" rx="2"/><rect x="1046" y="1408" width="26" height="20" rx="2"/><rect x="1079" y="1408" width="26" height="20" rx="2"/>
      <rect x="947" y="1435" width="26" height="20" rx="2"/><rect x="980" y="1435" width="26" height="20" rx="2"/><rect x="1013" y="1435" width="26" height="20" rx="2"/><rect x="1046" y="1435" width="26" height="20" rx="2"/><rect x="1079" y="1435" width="26" height="20" rx="2"/>
      <rect x="947" y="1462" width="26" height="20" rx="2"/><rect x="980" y="1462" width="26" height="20" rx="2"/><rect x="1013" y="1462" width="26" height="20" rx="2"/><rect x="1046" y="1462" width="26" height="20" rx="2"/><rect x="1079" y="1462" width="26" height="20" rx="2"/>
    </g>

    <rect x="1215" y="1265" width="280" height="42" rx="6" class="neutral"/>
    <text x="1355" y="1292" text-anchor="middle" font-size="16" font-weight="700">Natural-language question q</text>
    <path d="M1355 1307 V1324" class="arrow-small"/>
    <rect x="1200" y="1330" width="310" height="197" rx="7" class="frozen"/>
    <text x="1355" y="1359" text-anchor="middle" font-size="16" font-weight="700">Frozen Qwen</text>
    <text x="1355" y="1384" text-anchor="middle" font-size="13">Tokenizer + embedding</text>
    <text x="1355" y="1406" text-anchor="middle" font-size="13">Decoder + LM head</text>
    <path d="M1355 1418 V1509" class="arrow-small"/>
    <circle cx="1355" cy="1450" r="14" class="fixed-bridge"/>
    <circle cx="1355" cy="1480" r="14" class="fixed-bridge"/>
    <circle cx="1355" cy="1510" r="14" class="fixed-bridge"/>
    <text x="1355" y="1454" text-anchor="middle" font-size="9" font-weight="700">CA<tspan baseline-shift="sub" font-size="6">8</tspan></text>
    <text x="1355" y="1484" text-anchor="middle" font-size="9" font-weight="700">CA<tspan baseline-shift="sub" font-size="6">20</tspan></text>
    <text x="1355" y="1514" text-anchor="middle" font-size="9" font-weight="700">CA<tspan baseline-shift="sub" font-size="6">32</tspan></text>
    <path d="M1130 1465 H1188" class="arrow-small"/>
    <path d="M1355 1527 V1546" class="arrow-small"/>
    <rect x="1215" y="1550" width="280" height="42" rx="6" class="neutral"/>
    <text x="1355" y="1577" text-anchor="middle" font-size="17" font-weight="700">Restricted-choice answer</text>
  </g>
</svg>
